<svg width="51" height="50" viewBox="0 0 51 50" fill="none" xmlns="http://www.w3.org/2000/svg">
<rect width="50" height="50" transform="translate(0.25)" fill="#EDEDED"/>
<path fill-rule="evenodd" clip-rule="evenodd" d="M20.0648 19C19.0625 19 18.25 19.8679 18.25 20.9385V29.0615C18.25 30.1321 19.0625 31 20.0648 31H30.4352C31.4375 31 32.25 30.1321 32.25 29.0615V20.9385C32.25 19.8679 31.4375 19 30.4352 19H20.0648ZM19.8056 21.5988V29.0615C19.8056 29.2145 19.9216 29.3385 20.0648 29.3385H30.4352C30.5784 29.3385 30.6944 29.2145 30.6944 29.0615V21.5988L26.3524 25.1454C25.7017 25.6769 24.7983 25.6769 24.1476 25.1454L19.8056 21.5988ZM29.2811 20.6615H21.2189L25.0925 23.8255C25.1855 23.9015 25.3145 23.9015 25.4075 23.8255L29.2811 20.6615Z" fill="#7C7B7B"/>
</svg>
