<svg width="51" height="50" viewBox="0 0 51 50" fill="none" xmlns="http://www.w3.org/2000/svg">
<rect width="50" height="50" transform="translate(0.75)" fill="#EDEDED"/>
<path fill-rule="evenodd" clip-rule="evenodd" d="M25.7496 19.5364C25.7464 19.5371 25.7431 19.5378 25.7398 19.5384L21.362 20.4437V26.9629C21.367 26.9748 21.3735 26.9892 21.3818 27.0062C21.4122 27.0684 21.4608 27.1528 21.5346 27.2585C21.6822 27.47 21.9176 27.7481 22.2721 28.0796C22.9539 28.7172 24.0532 29.531 25.7502 30.4307C27.4469 29.5311 28.5461 28.7174 29.2279 28.0798C29.5824 27.7483 29.8178 27.4702 29.9654 27.2586C30.0392 27.153 30.0878 27.0685 30.1182 27.0064C30.1265 26.9894 30.133 26.975 30.138 26.9631V20.4439L25.7602 19.5386C25.7566 19.5379 25.7531 19.5371 25.7496 19.5364ZM25.7496 31.9804C25.5662 32.0207 25.3675 31.9996 25.1888 31.9068C23.2762 30.9129 21.988 29.98 21.1503 29.1966C20.7316 28.8051 20.4193 28.4451 20.1975 28.1274C19.9847 27.8224 19.8251 27.5135 19.7657 27.2265L19.75 27.151V27.074V19.815V19.1862L20.3871 19.0545L25.4021 18.0175C25.5209 17.9929 25.6392 17.995 25.7504 18.0195C25.8613 17.9951 25.9794 17.9931 26.0979 18.0176L31.1129 19.0546L31.75 19.1864V19.8151V27.0741V27.1512L31.7343 27.2267C31.6749 27.5137 31.5153 27.8225 31.3025 28.1276C31.0807 28.4453 30.7684 28.8053 30.3497 29.1968C29.512 29.9801 28.2238 30.9131 26.3112 31.9069C26.1323 31.9999 25.9332 32.0209 25.7496 31.9804Z" fill="#7C7B7B"/>
</svg>
